<svg id="Layer_1" height="512" viewBox="0 0 64 64" width="512" xmlns="http://www.w3.org/2000/svg"><g><g><g><path d="m52.6 29.9v26c0 2.1-1.7 3.7-3.7 3.7h-41.8v-29.7c8.4-8.4 13.1-13.1 21.5-21.5h2.2z" fill="#c9d8ef"/></g><g><path d="m52.6 55.8c0 2.2-1.8 4-4 4h-41.5v-29.9c1.4-1.4 2.7-2.7 4-3.9 0 16.4 13.3 29.8 29.8 29.8z" fill="#b2cbea"/></g><g><path d="m43.3 60.7h-36.2c-.5 0-1-.4-1-1v-29.8c0-.3.1-.5.3-.7 4.2-4.2 7.5-7.5 10.8-10.7 3.3-3.3 6.6-6.6 10.9-10.8.2-.2.4-.3.7-.3h2.1c.3 0 .5.1.7.3l9.7 9.6c.4.4.4 1 0 1.4s-1 .4-1.4 0l-9.4-9.3h-1.3c-4.1 4.1-7.3 7.3-10.6 10.5-3.2 3.2-6.4 6.4-10.6 10.5v28.4h35.2c.5 0 1 .4 1 1s-.4.9-.9.9z" fill="#2b3c65"/></g><g><path d="m52.6 34.2-22.7-22.7-22.8 22.7c-1.4 1.4-3.7 1.4-5.1 0-1.4-1.4-1.4-3.7 0-5.1l22.8-22.7c2.8-2.8 7.3-2.8 10.2 0l22.7 22.7c1.4 1.4 1.4 3.7 0 5.1-1.4 1.4-3.7 1.4-5.1 0z" fill="#f27dad"/></g><g><path d="m4.5 36.2c-1.2 0-2.3-.4-3.2-1.3-.8-.8-1.3-2-1.3-3.2 0-1.1.5-2.2 1.2-3.1l22.9-22.9c3.2-3.2 8.3-3.2 11.5 0l9.8 9.8c.4.4.4 1 0 1.4s-1 .4-1.4 0l-9.8-9.8c-2.4-2.4-6.3-2.4-8.7 0l-22.8 22.8c-.4.5-.7 1.2-.7 1.8 0 .5.1 1.2.7 1.8 1 1 2.7 1 3.7 0l22.8-22.8c.4-.4 1-.4 1.4 0l8.3 8.3c.4.4.4 1 0 1.4s-1 .4-1.4 0l-7.6-7.6-22.1 22.1c-.9.9-2.1 1.3-3.3 1.3z" fill="#2b3c65"/></g><g><path d="m43.3 60.7h-42.3c-.5 0-1-.4-1-1s.4-1 1-1h42.3c.5 0 1 .4 1 1s-.5 1-1 1z" fill="#2b3c65"/></g><g><path d="m32.9 41.5v18.2h-14.2v-18.2c0-1.1.9-2 2-2h10.3c1 0 1.9.9 1.9 2z" fill="#45c8f5"/><path d="m32.9 60.7h-14.2c-.5 0-1-.4-1-1v-18.2c0-1.6 1.3-3 3-3h10.3c1.6 0 2.9 1.4 2.9 3v18.2c0 .5-.5 1-1 1zm-13.2-2h12.2v-17.2c0-.6-.5-1-.9-1h-10.3c-.6 0-1 .5-1 1z" fill="#2b3c65"/></g><g><path d="m63 33c0 5.5-7.3 18.7-11.1 25.3-1.1 1.8-3.7 1.8-4.8 0-3.9-6.6-11.2-19.8-11.2-25.3 0-7.5 6.1-13.5 13.5-13.5s13.6 6 13.6 13.5z" fill="#ffd880"/></g><g><path d="m63 33c0 5.5-7.2 18.7-11.1 25.3-1.1 1.8-3.7 1.8-4.8 0-.5-.8-1-1.8-1.6-2.8.9 0 1.7-.5 2.2-1.4 3.9-6.7 11.1-19.8 11.1-25.3 0-2.7-.8-5.2-2.1-7.3 3.8 2.5 6.3 6.7 6.3 11.5z" fill="#fecb4d"/></g><g><path d="m49.5 60.6c-1.3 0-2.5-.7-3.2-1.8-3.5-5.8-11.4-19.8-11.4-25.8 0-8 6.5-14.5 14.5-14.5s14.6 6.5 14.6 14.5c0 4.2-3.8 12.8-11.2 25.8-.8 1.1-2 1.8-3.3 1.8zm-.1-40.1c-6.9 0-12.5 5.6-12.5 12.5 0 5.6 8.5 20.4 11.1 24.8.3.5.9.9 1.6.9s1.2-.3 1.6-.9c8.9-15.7 10.8-22.2 10.8-24.8 0-6.9-5.6-12.5-12.6-12.5z" fill="#2b3c65"/></g><g><circle cx="49.5" cy="33" fill="#fff" r="8.3"/><path d="m49.5 42.3c-5.1 0-9.3-4.2-9.3-9.3s4.2-9.3 9.3-9.3 9.3 4.2 9.3 9.3-4.2 9.3-9.3 9.3zm0-16.6c-4 0-7.3 3.3-7.3 7.3s3.3 7.3 7.3 7.3 7.3-3.3 7.3-7.3-3.3-7.3-7.3-7.3z" fill="#2b3c65"/></g></g><g><path d="m21.7 51.4c-.5 0-1-.4-1-1v-1.3c0-.5.4-1 1-1s1 .4 1 1v1.3c0 .5-.5 1-1 1z" fill="#2b3c65"/></g></g></svg>