<?xml version="1.0" standalone="no"?>
<svg xmlns="http://www.w3.org/2000/svg" version="1.1" xmlns:xlink="http://www.w3.org/1999/xlink" width="512" height="512" x="0" y="0" viewBox="0 0 512 512" style="enable-background:new 0 0 512 512" xml:space="preserve"><g><path d="M401.989 206v-65.006C401.989 63.25 336.499 0 256 0S110.011 63.25 110.011 140.994V206H73.466v123.466C73.466 430.116 155.351 512 256 512s182.534-81.884 182.534-182.534V206h-36.545zm-261.978-65.006C140.011 79.792 192.043 30 256 30s115.989 49.792 115.989 110.994V206h-36.34v-62.48c0-41.152-35.73-74.631-79.649-74.631s-79.649 33.479-79.649 74.631V206h-36.34v-65.006zM305.648 206H206.35v-62.48c0-24.61 22.272-44.631 49.649-44.631 27.377 0 49.649 20.021 49.649 44.631V206zm102.886 123.466C408.534 413.573 340.107 482 256 482s-152.534-68.427-152.534-152.534V236h305.068v93.466z" fill="#b1afaf" opacity="1" data-original="#000000"/><path d="M304.897 333.115c0-26.962-21.935-48.897-48.897-48.897s-48.898 21.935-48.898 48.897c0 10.379 3.229 20.291 9.207 28.564l-5.232 59.99h89.846l-5.233-59.99c5.979-8.272 9.207-18.185 9.207-28.564zm-35.401 13.218-4.828 4.928 3.524 40.407h-24.385l3.524-40.407-4.828-4.928a18.788 18.788 0 0 1-5.401-13.218c0-10.42 8.478-18.897 18.898-18.897s18.897 8.478 18.897 18.897c0 4.968-1.918 9.663-5.401 13.218z" fill="#b1afaf" opacity="1" data-original="#000000"/></g></svg>