<svg id="Layer_2_00000057112387027360359230000006719059120138735037_" enable-background="new 0 0 512 512" viewBox="0 0 512 512" xmlns="http://www.w3.org/2000/svg" xmlns:xlink="http://www.w3.org/1999/xlink"><linearGradient id="SVGID_1_" gradientTransform="matrix(1 0 0 -1 0 514)" gradientUnits="userSpaceOnUse" x1="172.568" x2="339.718" y1="341.998" y2="174.848"><stop offset="0" stop-color="#54bdff"/><stop offset="1" stop-color="#0042c7"/></linearGradient><g id="Icon"><g id="_64"><path d="m289.2 127v95.3h95.8c6.8 0 11.7 5.5 14.7 16.4 1.5 5.7 2.3 11.1 2.3 16.4s-.8 10.8-2.3 16.4c-3 11-7.9 16.4-14.7 16.4h-95.8v97c0 6.8-5.5 11.7-16.4 14.7-5.3 1.5-10.8 2.3-16.4 2.3l-16.4-2.3c-11-3-16.4-7.9-16.4-14.7v-97h-96.6c-6.8 0-11.7-5.5-14.7-16.4-1.5-5.7-2.3-11.1-2.3-16.4s.8-10.8 2.3-16.4c3-11 7.9-16.4 14.7-16.4h96.4v-95.3c0-6.8 5.5-11.7 16.4-14.7 5.3-1.5 10.8-2.3 16.4-2.3l16.4 2.3c11.1 3 16.6 7.9 16.6 14.7z" fill="url(#SVGID_1_)"/></g></g></svg>