<svg id="Layer_1" height="512" viewBox="0 0 512 512" width="512" xmlns="http://www.w3.org/2000/svg"><path d="m212 496c0 8.837-7.163 16-16 16h-114.545c-31.38 0-56.91-25.529-56.91-56.909v-398.181c0-31.38 25.53-56.91 56.91-56.91h114.545c8.837 0 16 7.163 16 16s-7.163 16-16 16h-114.545c-13.735 0-24.91 11.175-24.91 24.91v398.181c0 13.735 11.175 24.909 24.91 24.909h114.545c8.837 0 16 7.163 16 16zm270.258-251.802-104.832-95.956c-6.517-5.965-16.639-5.521-22.604.999-5.967 6.518-5.52 16.639.999 22.604l74.458 68.155h-277.914c-8.837 0-16 7.163-16 16s7.163 16 16 16h277.914l-74.459 68.155c-6.519 5.966-6.966 16.087-.999 22.604 3.155 3.448 7.474 5.197 11.806 5.197 3.858 0 7.729-1.388 10.799-4.198l104.832-95.957c3.312-3.03 5.197-7.313 5.197-11.802s-1.886-8.77-5.197-11.801z"/></svg>