<svg id="Layer_1" enable-background="new 0 0 100 100" viewBox="0 0 100 100" xmlns="http://www.w3.org/2000/svg"><g clip-rule="evenodd" fill="#565d47" fill-rule="evenodd"><path d="m12.3771248 23.8423519h75.263031v62.3648224c-.0000038 6.205965-5.0868645 11.2928257-11.2815056 11.2928257h-52.7000198c-6.1946449 0-11.2815056-5.0868607-11.2815056-11.2928238z"/><path d="m96.0616837 14.7085218c0 1.9782228-.067894 3.798173-.3052368 4.0356531-.1468201.1355057-.33918.2260284-.5425797.2260284h-86.9739571c-1.1304135 0-3.5608306.2147121-3.9903932-.2260284h-.0113153c-.4973159-.4974537-.2260275-7.9242096-.2260275-9.1451445l.7686038-.7686043h34.3193436c-.0677538-3.504392-.5763865-5.8556026 1.7973165-6.3304261h18.2450333c.4860001 0 .9380531.19222 1.2546043.5087688v.0224924c.8026848.8026874.5878372 3.6625288.5312614 5.7991648h34.2855301l.7686081.7686043c.0000001.6330978.0792085 2.9616777.0792085 5.1094915z"/></g></svg>