<svg clip-rule="evenodd" fill-rule="evenodd" height="6.827in" image-rendering="optimizeQuality" shape-rendering="geometricPrecision" text-rendering="geometricPrecision" viewBox="0 0 6827 6827" width="6.827in" xmlns="http://www.w3.org/2000/svg"><g id="Layer_x0020_1"><path d="m2796 1398h1234v-545h-1234zm163-381h907v218h-907z" fill="#b0b9bb"/><g fill-rule="nonzero"><path d="m2830 1365h1167v-478h-1167zm1200 67h-1234c-18 0-33-15-33-33v-545c0-18 15-33 33-33h1234c18 0 33 15 33 33v545c0 18-15 33-33 33zm-1070-448h907c18 0 33 15 33 33v218c0 18-15 33-33 33h-907c-18 0-33-15-33-33v-218c0-18 15-33 33-33zm874 67h-840v151h840z" fill="#013668"/><path d="m5067 1595v3858 405 115h-115-3077-115v-115-405-3858z" fill="#b0b9bb"/><path d="m5100 1595v3858 405 115c0 18-15 33-33 33h-115-3077-115c-18 0-33-15-33-33v-115-405-3858c0-18 15-33 33-33h3307c18 0 33 15 33 33zm-67 3858v-3824h-3240v3824 405 82h82 3077 82v-82-405z" fill="#013668"/><path d="m1760 1752h-351-5v-535h3716 303v535c-116 0-187 0-303 0h-53z" fill="#c5d0d5"/><path d="m1760 1785h-351-5c-18 0-33-15-33-33v-535c0-18 15-33 33-33h3716 303c18 0 33 15 33 33v535c0 18-15 33-33 33h-303-53zm-323-67h323 3307 53 270v-468h-270-3683z" fill="#013668"/></g><path d="m4277 4980v-2420c0-41-33-74-74-74s-74 33-74 74v2420c0 41 33 74 74 74s74-33 74-74z" fill="#f2f3f4"/><path d="m4244 4980v-2420c0-11-5-22-12-29-7-7-18-12-29-12s-22 5-29 12c-7 7-12 18-12 29v2420c0 11 5 22 12 29s18 12 29 12 22-5 29-12 12-18 12-29zm67-2420v2420c0 30-12 57-32 76-19 19-46 32-76 32s-57-12-76-32c-19-19-32-46-32-76v-2420c0-30 12-57 32-76 19-19 46-32 76-32s57 12 76 32c20 20 32 46 32 76z" fill="#013668" fill-rule="nonzero"/><path d="m3488 4980v-2420c0-41-33-74-74-74s-74 33-74 74v2420c0 41 33 74 74 74s74-33 74-74z" fill="#f2f3f4"/><path d="m3454 4980v-2420c0-11-5-22-12-29s-18-12-29-12-22 5-29 12c0 0-1 1-1 1-7 7-11 17-11 28v2420c0 11 5 22 12 29 0 0 1 1 1 1 7 7 17 11 28 11s22-5 29-12 12-18 12-29zm67-2420v2420c0 30-12 57-32 76-19 19-46 32-76 32-29 0-55-11-74-29-1-1-2-1-2-2-19-19-32-46-32-76v-2420c0-29 11-55 30-74l2-2c19-19 46-32 76-32s56 12 76 32c19 19 32 46 32 76z" fill="#013668" fill-rule="nonzero"/><path d="m2698 4980v-2420c0-41-33-74-74-74s-74 33-74 74v2420c0 41 33 74 74 74s74-33 74-74z" fill="#f2f3f4"/><path d="m2665 4980v-2420c0-11-5-22-12-29s-18-12-29-12-22 5-29 12c0 0-1 1-1 1-7 7-11 17-11 28v2420c0 11 5 22 12 29 7 7 18 12 29 12s22-5 29-12c7-7 12-18 12-29zm67-2420v2420c0 30-12 57-32 76-20 20-46 32-76 32s-57-12-76-32c-20-20-32-46-32-76v-2420c0-29 11-55 29-74 1-1 1-2 2-2 19-19 46-32 76-32s57 12 76 32c19 19 32 46 32 76z" fill="#013668" fill-rule="nonzero"/></g><path d="m0 0h6827v6827h-6827z" fill="none"/></svg>