<svg id="FLATICON_FLAT" height="512" viewBox="0 0 64 64" width="512" xmlns="http://www.w3.org/2000/svg" xmlns:xlink="http://www.w3.org/1999/xlink" data-name="FLATICON FLAT"><linearGradient id="linear-gradient" gradientUnits="userSpaceOnUse" x1="9.11" x2="54.89" y1="32.57" y2="32.57"><stop offset="0" stop-color="#00c0ff"/><stop offset="1" stop-color="#5558ff"/></linearGradient><path d="m51.77 12.14h-7.17s.00361-2.94912 0-3.88a3.12395 3.12395 0 0 0 -3.12-3.12h-18.96a3.124 3.124 0 0 0 -3.12 3.12c.00616.9337 0 3.88 0 3.88h-7.17a3.12615 3.12615 0 0 0 -3.12 3.13v3.56a.99655.99655 0 0 0 1 1c1.70485-.0016 42.07356.00115 43.78005 0a.99653.99653 0 0 0 1-1v-3.56a3.12615 3.12615 0 0 0 -3.12005-3.13zm-30.37-3.88a1.11816 1.11816 0 0 1 1.12-1.12h18.96a1.11816 1.11816 0 0 1 1.12 1.12c-.00191.96386.00137 2.9138 0 3.88h-21.2c.00749-.968-.00535-2.91493 0-3.88zm-9.38 13.57.09 2.07c-.03637.00632 1.25382 29.022 1.23 29.04-.00078.00926.05005 1.14006.05006 1.15008a6.16172 6.16172 0 0 0 6.16994 5.90992h24.88a6.16173 6.16173 0 0 0 6.17-5.91l1.37-32.26zm29.12 5.93a1.00125 1.00125 0 0 1 2 .09l-1.23 26.31a1.00117 1.00117 0 0 1 -2-.09zm-10.14.05a1.00017 1.00017 0 0 1 2 .00006v26.29994a1.00017 1.00017 0 0 1 -2-.00007zm-9.19-1a1.01148 1.01148 0 0 1 1.05.95l1.23 26.31a.98876.98876 0 0 1 -1 1.04.99969.99969 0 0 1 -1-.95l-1.23-26.31a.99572.99572 0 0 1 .95-1.04z" fill="url(#linear-gradient)"/></svg>