<svg id="Capa_1" enable-background="new 0 0 453.54 453.54" height="512" viewBox="0 0 453.54 453.54" width="512" xmlns="http://www.w3.org/2000/svg"><g><g><path d="m380.836 207.958c11.988-3.36 20.789-14.343 20.789-27.402 0-12.448-7.997-23.002-19.123-26.879 6.872-5.2 11.332-13.42 11.332-22.703 0-14.674-11.101-26.747-25.361-28.306 2.943-4.483 4.667-9.836 4.667-15.599 0-15.732-12.753-28.484-28.484-28.484-2.146 0-4.228.256-6.237.706.006-.236.035-.468.035-.706 0-15.732-12.753-28.485-28.484-28.485-8.1 0-15.393 3.397-20.579 8.824-31.547-13.206-63.885-20.592-98.483-14.854-9.506 1.576-22.807 4.768-33.965 10.284-4.342-2.68-9.441-4.253-14.918-4.253-15.731 0-28.484 12.754-28.484 28.484 0 .238.03.47.035.706-2.009-.448-4.091-.706-6.237-.706-15.731 0-28.484 12.754-28.484 28.484 0 5.763 1.724 11.117 4.667 15.601-14.261 1.557-25.362 13.63-25.362 28.306 0 9.281 4.461 17.502 11.334 22.703-11.127 3.876-19.125 14.431-19.125 26.878 0 13.061 8.803 24.041 20.79 27.401-7.817 5.079-13 13.873-13 23.889 0 15.73 12.754 28.485 28.485 28.485 1.128 0 2.236-.084 3.331-.212-2.12 3.985-3.331 8.526-3.331 13.356 0 15.731 12.753 28.485 28.484 28.485 4.7 0 9.121-1.159 13.029-3.174 3.892 11.098 14.431 19.068 26.856 19.068 8.723 0 16.518-3.931 21.743-10.107 2.676 12.957 14.146 22.697 27.893 22.697 8.51 0 16.127-3.753 21.346-9.67 5.22 5.915 12.837 9.667 21.346 9.667 13.747 0 25.217-9.74 27.893-22.695 5.226 6.176 13.021 10.106 21.744 10.106 12.425 0 22.963-7.973 26.856-19.066 3.908 2.015 8.33 3.174 13.029 3.174 15.731 0 28.484-12.754 28.484-28.485 0-4.83-1.211-9.374-3.331-13.356 1.094.126 2.202.21 3.331.21 15.732 0 28.484-12.754 28.484-28.484.004-10.017-5.177-18.809-12.995-23.888z" fill="#2a2e6d"/></g><g><g><path d="m320.641 216.337c-8.467 0-15.355-6.889-15.355-15.355s6.888-15.355 15.355-15.355c1.928 0 3.491 1.563 3.491 3.491s-1.563 3.491-3.491 3.491c-4.617 0-8.373 3.756-8.373 8.373s3.756 8.373 8.373 8.373 8.374-3.756 8.374-8.373c0-1.928 1.563-3.491 3.491-3.491s3.491 1.563 3.491 3.491c-.001 8.466-6.889 15.355-15.356 15.355z" fill="#fff"/></g><g><path d="m131.355 216.337c-8.467 0-15.355-6.889-15.355-15.355 0-1.928 1.563-3.491 3.491-3.491s3.491 1.563 3.491 3.491c0 4.617 3.756 8.373 8.373 8.373s8.373-3.756 8.373-8.373-3.756-8.373-8.373-8.373c-1.928 0-3.491-1.563-3.491-3.491s1.563-3.491 3.491-3.491c8.467 0 15.355 6.889 15.355 15.355s-6.888 15.355-15.355 15.355z" fill="#fff"/></g></g><g><path d="m425.374 453.542c1.837-49.627-29.418-68.714-29.418-68.714l-131.68-74.439h-75.018l-131.673 74.439s-31.256 19.087-29.418 68.714z" fill="#ba6b4b"/></g><g><path d="m179.893 320.016h93.755c-20.772-11.216-15.175-54.338-15.175-54.338h-63.405c-.001 0 5.598 43.122-15.175 54.338z" fill="#ba6b4b"/></g><g><path d="m193.769 298.098c22.398-2.559 44.324-10.067 64.029-21.166.075-6.619.675-11.254.675-11.254h-63.405c-.001 0 2.198 16.993-1.299 32.42z" fill="#b05844"/></g><g><g><path d="m336.125 169.608c-1.974 15.252-10.603 26.578-19.276 25.297-8.673-1.283-14.104-14.688-12.133-29.94 1.974-15.253 10.606-26.579 19.279-25.298 8.673 1.283 14.105 14.687 12.13 29.941z" fill="#b05844"/></g><g><g><path d="m316.725 183.58c-1.176 0-2.246-.799-2.54-1.991-2.162-8.754-3.145-19.126 5.962-29.687.945-1.097 2.6-1.216 3.693-.273 1.095.944 1.217 2.598.273 3.693-7.906 9.168-6.646 17.718-4.845 25.012.347 1.403-.51 2.823-1.915 3.169-.209.052-.421.077-.628.077z" fill="#853d30"/></g><g><path d="m325.525 168.379c-.162 0-.326-.015-.491-.047-4.2-.794-8.532-.007-8.576.001-1.428.259-2.789-.67-3.057-2.089-.267-1.419.664-2.787 2.083-3.057.215-.041 5.322-.99 10.526 0 1.421.27 2.354 1.641 2.084 3.061-.238 1.256-1.335 2.131-2.569 2.131z" fill="#853d30"/></g></g></g><g><g><path d="m117.415 169.608c1.974 15.252 10.603 26.578 19.276 25.297 8.673-1.283 14.104-14.688 12.133-29.94-1.974-15.253-10.606-26.579-19.279-25.298-8.673 1.283-14.105 14.687-12.13 29.941z" fill="#b05844"/></g><g><g><path d="m136.815 183.58c-.208 0-.418-.024-.629-.077-1.405-.346-2.261-1.766-1.915-3.169 1.801-7.294 3.061-15.844-4.845-25.012-.944-1.096-.822-2.749.273-3.693 1.093-.943 2.747-.824 3.693.273 9.106 10.561 8.124 20.933 5.962 29.687-.293 1.192-1.363 1.991-2.539 1.991z" fill="#853d30"/></g><g><path d="m128.015 168.379c-1.233 0-2.331-.875-2.57-2.131-.27-1.42.663-2.791 2.084-3.061 5.206-.991 10.312-.041 10.526 0 1.42.271 2.354 1.641 2.083 3.061-.27 1.42-1.64 2.35-3.058 2.085-.071-.014-4.387-.794-8.575-.001-.164.032-.328.047-.49.047z" fill="#853d30"/></g></g></g><g><path d="m314.617 133.061c-1.555-43.516-28.263-97.271-83.022-96.977h-5.595-5.598c-54.759-.295-81.464 53.461-83.022 96.977-1.562 43.736 11.847 94.178 39.087 121.005 12.771 12.575 32.143 18.623 49.533 18.925 17.387-.302 36.759-6.35 49.53-18.925 27.24-26.828 40.648-77.269 39.087-121.005z" fill="#ba6b4b"/></g><g><path d="m143.536 126.913c.031 51.453-3.341 52.948-3.341 52.948" fill="#2a2e6d"/></g><g><path d="m304.314 127.741s.988 33.771 6.239 51.971c8.98-6.741 1.854-38.98 14.268-39.883 0 0 31.385-79.974-32.255-122.123-31.71-17.708-58.995-17.708-58.995-17.708-138.723 1.164-103.587 138.17-103.587 138.17 7.582 8.673 5.182 21.604 10.211 41.693 8.823-12.968 9.034-52.12 9.034-52.12s-9.755-67.661 80.057-65.556c0 .001 75.026-8.145 75.028 65.556z" fill="#2a2e6d"/></g><g><g><g><path d="m283.579 140.486c-2.236-15.498-34.962-16.074-41.351-9.824 0 0-2.465 4.437.593 8.582 18.359-6.756 35.307-.511 40.703 2.401.849.1.055-1.159.055-1.159z" fill="#2a2e6d"/></g><g><path d="m168.417 140.486s-.794 1.259.055 1.159c5.397-2.912 22.344-9.157 40.703-2.401 3.058-4.146.593-8.582.593-8.582-6.389-6.25-39.115-5.674-41.351 9.824z" fill="#2a2e6d"/></g></g><g><g><ellipse cx="186.866" cy="185.028" fill="#a5513f" rx="21.231" ry="9.645"/></g><g><ellipse cx="265.133" cy="185.028" fill="#a5513f" rx="21.231" ry="9.645"/></g></g><g><g><path d="m198.125 162.63c-1.446 0-2.619-1.172-2.619-2.618 0-6.332-2.626-10.532-4.364-10.532-1.737 0-4.364 4.2-4.364 10.532 0 1.446-1.172 2.618-2.618 2.618s-2.619-1.172-2.619-2.618c0-8.99 4.127-15.77 9.601-15.77s9.601 6.779 9.601 15.77c.001 1.446-1.171 2.618-2.618 2.618z" fill="#2a2d6b"/></g><g><path d="m267.834 162.63c-1.446 0-2.618-1.172-2.618-2.618 0-6.332-2.624-10.532-4.36-10.532-1.737 0-4.364 4.2-4.364 10.532 0 1.446-1.172 2.618-2.619 2.618-1.446 0-2.618-1.172-2.618-2.618 0-8.99 4.127-15.77 9.601-15.77 5.471 0 9.597 6.779 9.597 15.77 0 1.446-1.172 2.618-2.619 2.618z" fill="#2a2d6b"/></g></g><g><path d="m227.802 212.955c-.333 0-.669-.063-.996-.197-5.631-2.316-8.697-4.92-9.647-8.19-1.253-4.316 1.496-8.206 4.407-12.325 1.822-2.578 3.707-5.244 4.622-8.033.452-1.374 1.928-2.118 3.305-1.671 1.373.451 2.122 1.932 1.67 3.305-1.162 3.536-3.372 6.663-5.322 9.422-2.162 3.059-4.204 5.948-3.654 7.842.314 1.082 1.717 2.795 6.611 4.809 1.337.551 1.975 2.08 1.425 3.418-.414 1.009-1.391 1.62-2.421 1.62z" fill="#853d30"/></g><g><path d="m226.572 231.787c-12.395 0-21.509-6.14-21.646-6.233-1.19-.821-1.49-2.451-.669-3.643.818-1.189 2.446-1.491 3.638-.671.728.497 17.854 11.9 36.262-.039 1.215-.785 2.836-.441 3.622.771.788 1.214.441 2.835-.771 3.622-7.157 4.643-14.211 6.193-20.436 6.193z" fill="#853d30"/></g></g><g><path d="m332.505 204.473c-1.928 0-3.491-1.563-3.491-3.491 0-4.617-3.756-8.373-8.374-8.373-1.928 0-3.491-1.563-3.491-3.491s1.563-3.491 3.491-3.491c8.467 0 15.355 6.889 15.355 15.355.001 1.927-1.562 3.491-3.49 3.491z" fill="#fff"/></g><g><path d="m119.491 204.473c-1.928 0-3.491-1.563-3.491-3.491 0-8.467 6.889-15.355 15.355-15.355 1.928 0 3.491 1.563 3.491 3.491s-1.563 3.491-3.491 3.491c-4.617 0-8.373 3.756-8.373 8.373 0 1.927-1.564 3.491-3.491 3.491z" fill="#fff"/></g><g><path d="m395.955 384.828-62.5-35.332c-4.482 6.094-9.516 11.791-15.16 16.938-29.127 26.562-68.718 35.229-107.279 32.02-19.486-1.621-38.986-6.408-56.103-16.101-14.292-8.092-26.362-19.087-35.822-32.296l-61.507 34.771s-31.256 19.087-29.418 68.714h397.207c1.838-49.627-29.418-68.714-29.418-68.714z" fill="#5d78ba"/></g></g></svg>