<?xml version="1.0" standalone="no"?>
<svg xmlns="http://www.w3.org/2000/svg" version="1.1" xmlns:xlink="http://www.w3.org/1999/xlink" width="512" height="512" x="0" y="0" viewBox="0 0 268.833 268.833" style="enable-background:new 0 0 512 512" xml:space="preserve" class=""><g><path d="M256.333 121.916H42.679l58.659-58.661c4.882-4.882 4.882-12.796 0-17.678-4.883-4.881-12.797-4.881-17.678 0l-79.998 80c-4.883 4.882-4.883 12.796 0 17.678l80 80c2.439 2.439 5.64 3.661 8.839 3.661s6.397-1.222 8.839-3.661c4.882-4.882 4.882-12.796 0-17.678l-58.661-58.661h213.654c6.903 0 12.5-5.598 12.5-12.5 0-6.903-5.597-12.5-12.5-12.5z" fill="#ffffff" opacity="1" data-original="#000000" class=""/></g></svg>