<svg id="outline" viewBox="0 0 48 48" xmlns="http://www.w3.org/2000/svg"><path d="m35 44h-5c-1.6543 0-3-1.3457-3-3v-9c0-.5513-.4487-1-1-1h-4c-.5513 0-1 .4487-1 1v9c0 1.6543-1.3457 3-3 3h-5c-1.6543 0-3-1.3457-3-3v-16h-3.4956c-.8232 0-1.5522-.4941-1.8574-1.2588s-.1167-1.625.4805-2.1914l17.4946-16.6206h.0005c.7725-.7334 1.9824-.7334 2.7549 0l17.4956 16.6206c.5967.5664.7852 1.4268.48 2.1914s-1.0342 1.2588-1.8574 1.2588h-3.4956v16c0 1.6543-1.3457 3-3 3zm-13-15h4c1.6543 0 3 1.3457 3 3v9c0 .5513.4487 1 1 1h5c.5513 0 1-.4487 1-1v-16c0-1.103.897-2 2-2h3.4956l-17.4956-16.6206-.689-.7251.689.7251-17.4951 16.6206h3.4951c1.103 0 2 .897 2 2v16c0 .5513.4487 1 1 1h5c.5513 0 1-.4487 1-1v-9c0-1.6543 1.3457-3 3-3z"/></svg>