<svg id="Capa_1" enable-background="new 0 0 453.54 453.54" height="512" viewBox="0 0 453.54 453.54" width="512" xmlns="http://www.w3.org/2000/svg"><g><g><path d="m114.905 167.234c5.85 10.417 1.36 19.861 2.181 29.726.719 8.636 4.23 18.001 8.864 25.497 9.215 14.906 24.387 21.943 38.012 32.212 33.525 25.266 67.717 30.368 69.981-21.167 1.286-29.293 3.168-72.361-18.716-94.19-26.404-26.339-87.335-18.303-101.549 16.877" fill="#2a2e6d"/></g><g><path d="m334.772 167.234c-5.849 10.417-1.36 19.861-2.18 29.726-.719 8.636-4.23 18.001-8.864 25.497-9.215 14.906-24.387 21.945-38.013 32.214-33.525 25.264-67.717 30.366-69.98-21.169-1.286-29.293-3.168-72.361 18.716-94.19 26.404-26.339 87.335-18.303 101.549 16.877" fill="#2a2e6d"/></g><g><path d="m436.212 453.541c1.936-52.337-31.024-72.463-31.024-72.463l-138.865-78.504h-79.111l-138.86 78.504s-32.96 20.126-31.024 72.463z" fill="#f9c5b8"/></g><g><path d="m177.335 312.729h98.869c-21.906-11.83-16.002-57.304-16.002-57.304h-66.864c0 .001 5.904 45.474-16.003 57.304z" fill="#f9c5b8"/></g><g><path d="m191.968 289.613c23.621-2.696 46.741-10.615 67.522-22.319.081-6.982.712-11.868.712-11.868h-66.864s2.319 17.919-1.37 34.187z" fill="#f5a997"/></g><g><g><path d="m342.094 154.114c-2.082 16.084-11.183 28.029-20.33 26.677-9.146-1.353-14.874-15.489-12.794-31.574 2.082-16.085 11.184-28.03 20.33-26.678 9.148 1.353 14.874 15.489 12.794 31.575z" fill="#f5a997"/></g><g><g><path d="m321.635 168.849c-1.24 0-2.368-.842-2.678-2.101-2.28-9.23-3.316-20.169 6.285-31.306.998-1.157 2.739-1.284 3.895-.289 1.155.996 1.284 2.74.288 3.895-8.335 9.669-7.007 18.685-5.108 26.377.366 1.48-.538 2.977-2.019 3.342-.222.055-.444.082-.663.082z" fill="#e9837b"/></g><g><path d="m330.915 152.818c-.17 0-.343-.016-.518-.049-4.432-.839-8.997-.006-9.044.001-1.503.273-2.941-.707-3.223-2.203-.281-1.497.7-2.939 2.197-3.223.227-.043 5.611-1.043 11.101 0 1.498.284 2.482 1.729 2.197 3.228-.251 1.323-1.409 2.246-2.71 2.246z" fill="#e9837b"/></g></g></g><g><g><path d="m111.446 154.114c2.082 16.084 11.183 28.029 20.33 26.677 9.146-1.353 14.874-15.489 12.794-31.574-2.082-16.085-11.184-28.03-20.33-26.678-9.146 1.353-14.874 15.489-12.794 31.575z" fill="#f5a997"/></g><g><g><path d="m131.905 168.849c-.219 0-.441-.026-.664-.082-1.481-.365-2.384-1.861-2.019-3.342 1.899-7.692 3.228-16.708-5.108-26.377-.996-1.155-.867-2.898.289-3.895 1.152-.996 2.896-.868 3.895.289 9.601 11.137 8.565 22.076 6.285 31.306-.31 1.258-1.437 2.101-2.678 2.101z" fill="#e9837b"/></g><g><path d="m122.625 152.818c-1.301 0-2.458-.923-2.71-2.247-.285-1.498.699-2.943 2.197-3.228 5.492-1.044 10.874-.043 11.101 0 1.499.285 2.482 1.73 2.198 3.228-.285 1.498-1.729 2.478-3.225 2.199-.077-.015-4.627-.837-9.043-.001-.174.033-.348.049-.518.049z" fill="#e9837b"/></g></g></g><g><path d="m319.409 115.571c-1.639-45.889-29.803-102.578-87.553-102.268h-5.9-5.902c-57.75-.311-85.912 56.378-87.553 102.268-1.648 46.124 12.494 99.318 41.218 127.607 13.468 13.261 33.898 19.639 52.236 19.959 18.336-.32 38.767-6.698 52.234-19.959 28.728-28.289 42.869-81.483 41.22-127.607z" fill="#f9c5b8"/></g><g><path d="m319.517 119.901c-5.521-.333-8.171-.353-8.796 10.224 0 0-5.364 67.326-25.205 76.53-9.047.914-13.929-4.954-20.414-8.849-10.355-6.219-21.363 2.187-31.087 5.518-2.492.854-4.892 1.3-7.224 1.406-.278.007-.555.018-.836.016-.28.002-.558-.008-.836-.016-2.333-.106-4.732-.552-7.224-1.406-9.725-3.331-20.731-11.737-31.087-5.518-6.485 3.895-11.367 9.763-20.414 8.849-19.841-9.204-25.205-76.53-25.205-76.53-.625-10.577-3.275-10.557-8.796-10.224-.645 45.083 13.497 95.869 41.326 123.277 13.018 12.816 32.534 19.186 50.384 19.889.618.025 1.238.062 1.851.072 18.338-.32 38.769-6.698 52.236-19.961 27.831-27.408 41.973-78.194 41.327-123.277z" fill="#2a2e6d"/></g><g><path d="m266.323 302.574 138.865 78.504s32.96 20.126 31.024 72.463h-418.884c-1.936-52.337 31.024-72.463 31.024-72.463l138.86-78.504s41.925 25.743 79.111 0z" fill="#9caad8"/></g><g><path d="m266.323 302.574 138.865 78.504s32.96 20.126 31.024 72.463h-418.884c-1.936-52.337 31.024-72.463 31.024-72.463l138.86-78.504s41.925 25.743 79.111 0z" fill="#646db2"/></g><g><g><g><ellipse cx="184.687" cy="168.038" fill="#f6afa8" rx="22.391" ry="10.171"/></g><g><ellipse cx="267.225" cy="168.038" fill="#f6afa8" rx="22.391" ry="10.171"/></g></g><g><g><path d="m201.63 116.034c-.272 2.625-2.346 4.384-4.633 4.165-8.398-.819-16.747.565-24.43 4.052-2.095.946-4.625-.049-5.731-2.447-1.103-2.392-.073-5.449 2.391-6.565 8.814-4 18.389-5.588 28.021-4.646 2.691.259 4.654 2.821 4.382 5.441z" fill="#2a2e6d"/></g><g><path d="m250.282 116.034c.272 2.625 2.346 4.384 4.633 4.165 8.397-.819 16.747.565 24.43 4.052 2.095.946 4.625-.049 5.731-2.447 1.103-2.392.073-5.449-2.391-6.565-8.814-4-18.389-5.588-28.021-4.646-2.692.259-4.655 2.821-4.382 5.441z" fill="#2a2e6d"/></g></g><g><path d="m225.034 200.348c-.35 0-.706-.068-1.05-.209-5.938-2.443-9.171-5.188-10.174-8.638-1.321-4.551 1.578-8.654 4.647-12.997 1.922-2.719 3.909-5.53 4.875-8.472.476-1.449 2.035-2.235 3.486-1.762 1.448.477 2.237 2.037 1.762 3.486-1.225 3.728-3.556 7.026-5.612 9.936-2.28 3.226-4.433 6.273-3.854 8.269.332 1.142 1.811 2.948 6.972 5.071 1.41.581 2.083 2.194 1.503 3.604-.439 1.067-1.469 1.712-2.555 1.712z" fill="#e9837b"/></g><g><g><ellipse cx="189.198" cy="143.993" fill="#2a2d6b" rx="7.362" ry="13.869"/></g><g><ellipse cx="262.713" cy="143.993" fill="#2a2d6b" rx="7.362" ry="13.869"/></g></g><g><path d="m206.297 209.528c2.756 8.223 10.508 14.155 19.659 14.155 9.15 0 16.901-5.932 19.657-14.155z" fill="#fff"/></g></g><g><path d="m226.77 7.39v35.597c-29.234.365-50.844 9.25-60.019 25.149-10.169 17.622-2.708 50.128-14.11 60.747-6.957 6.479-17.081-5.771-24.979-4.278-17.514.093-16.649 22.535-16.639 22.794.017-.003 1.765.009 0 .009-8.014-18.155-15.567-34.898-4.436-52.308 5.212-8.153 10.292-11.02 11.999-21.135 1.647-9.763-.372-18.181 3.652-27.036 12.978-28.562 43.104-41.236 72.4-45.786.001.001 29.371-5.104 32.132 6.247z" fill="#2a2e6d"/></g><g><path d="m226.77 7.39v35.597c29.234.365 50.855 9.25 60.031 25.149 10.169 17.622 2.708 50.128 14.11 60.747 6.957 6.479 17.082-5.771 24.979-4.278 17.514.093 16.649 22.535 16.639 22.794-.017-.003-1.765.009 0 .009 8.014-18.155 15.567-34.898 4.436-52.308-5.212-8.153-10.292-11.02-11.999-21.135-1.647-9.763.372-18.181-3.652-27.036-12.978-28.562-43.104-41.236-72.4-45.786-.001.001-29.383-5.104-32.144 6.247z" fill="#2a2e6d"/></g><g><g><path d="m178.942 181.343c-21.793 0-39.523-17.73-39.523-39.523s17.73-39.523 39.523-39.523c21.795 0 39.527 17.73 39.527 39.523s-17.732 39.523-39.527 39.523zm0-71.683c-17.733 0-32.16 14.427-32.16 32.16s14.427 32.16 32.16 32.16c17.735 0 32.164-14.427 32.164-32.16s-14.429-32.16-32.164-32.16z" fill="#fff"/></g><g><path d="m272.993 181.343c-21.794 0-39.524-17.73-39.524-39.523s17.73-39.523 39.524-39.523c21.793 0 39.523 17.73 39.523 39.523s-17.73 39.523-39.523 39.523zm0-71.683c-17.734 0-32.161 14.427-32.161 32.16s14.427 32.16 32.161 32.16c17.733 0 32.16-14.427 32.16-32.16s-14.427-32.16-32.16-32.16z" fill="#fff"/></g><g><path d="m144.275 154.915h-11.001c-2.033 0-3.682-1.648-3.682-3.682s1.648-3.682 3.682-3.682h11.001c2.033 0 3.682 1.648 3.682 3.682s-1.649 3.682-3.682 3.682z" fill="#fff"/></g><g><path d="m318.637 154.915h-11.37c-2.033 0-3.682-1.648-3.682-3.682s1.648-3.682 3.682-3.682h11.37c2.033 0 3.682 1.648 3.682 3.682s-1.649 3.682-3.682 3.682z" fill="#fff"/></g><g><path d="m214.786 146.026c-.824 0-1.654-.275-2.34-.84-1.569-1.292-1.793-3.613-.5-5.183.25-.303 6.207-7.418 14.526-7.418 5.03 0 9.636 2.496 13.692 7.418 1.293 1.569 1.07 3.889-.5 5.183-1.568 1.294-3.889 1.07-5.183-.5-2.59-3.144-5.285-4.737-8.01-4.737-4.806 0-8.804 4.69-8.844 4.737-.726.884-1.779 1.34-2.841 1.34z" fill="#fff"/></g></g></g></svg>