<?xml version="1.0" standalone="no"?>
<svg xmlns="http://www.w3.org/2000/svg" version="1.1" xmlns:xlink="http://www.w3.org/1999/xlink" width="512" height="512" x="0" y="0" viewBox="0 0 301.884 301.884" style="enable-background:new 0 0 512 512" xml:space="preserve"><g><path d="M297.658 125.357 159.503 17.28c-2.361-1.848-5.401-2.865-8.562-2.865-3.16 0-6.2 1.018-8.56 2.864L4.226 125.357c-5.416 4.236-4.265 9.128-3.782 10.526.481 1.398 2.589 5.961 9.465 5.961h27.5v133.125c0 6.893 5.607 12.5 12.5 12.5h64.7c6.892 0 12.5-5.607 12.5-12.5v-59.578h47.666v59.578c0 6.893 5.607 12.5 12.5 12.5h64.7c6.893 0 12.5-5.607 12.5-12.5V141.844h27.5c6.876 0 8.983-4.563 9.465-5.961.482-1.398 1.634-6.29-3.782-10.526zm-35.683 1.487c-6.893 0-12.5 5.607-12.5 12.5v133.125h-59.7v-59.578c0-6.893-5.607-12.5-12.5-12.5h-52.666c-6.893 0-12.5 5.607-12.5 12.5v59.578h-59.7V139.344c0-6.893-5.608-12.5-12.5-12.5h-13.24l124.272-97.217 124.272 97.217h-13.238z" style="" fill="#ffffff" data-original="#000002" opacity="1"/></g></svg>