<?xml version="1.0" standalone="no"?>
<svg xmlns="http://www.w3.org/2000/svg" version="1.1" xmlns:xlink="http://www.w3.org/1999/xlink" width="512" height="512" x="0" y="0" viewBox="0 0 512 512" style="enable-background:new 0 0 512 512" xml:space="preserve" class=""><g><path d="M212 496c0 8.837-7.163 16-16 16H81.455c-31.38 0-56.91-25.529-56.91-56.909V56.91C24.545 25.53 50.075 0 81.455 0H196c8.837 0 16 7.163 16 16s-7.163 16-16 16H81.455c-13.735 0-24.91 11.175-24.91 24.91v398.181c0 13.735 11.175 24.909 24.91 24.909H196c8.837 0 16 7.163 16 16zm270.258-251.802-104.832-95.956c-6.517-5.965-16.639-5.521-22.604.999-5.967 6.518-5.52 16.639.999 22.604L430.279 240H152.365c-8.837 0-16 7.163-16 16s7.163 16 16 16h277.914l-74.459 68.155c-6.519 5.966-6.966 16.087-.999 22.604a15.955 15.955 0 0 0 11.806 5.197c3.858 0 7.729-1.388 10.799-4.198l104.832-95.957a15.995 15.995 0 0 0 0-23.603z" fill="#ffffff" opacity="1" data-original="#000000" class=""/></g></svg>