<svg id="Layer_1" enable-background="new 0 0 100 100" viewBox="0 0 100 100" xmlns="http://www.w3.org/2000/svg" xmlns:xlink="http://www.w3.org/1999/xlink"><linearGradient id="SVGID_1_" gradientUnits="userSpaceOnUse" x1="-.051" x2="91.965" y1="-4.851" y2="95.99"><stop offset="0" stop-color="#97e0ff"/><stop offset="1" stop-color="#1075ff"/></linearGradient><path d="m97.5 9.7437496v16.2687492c0 2.1861286-1.7722092 3.9583321-3.9583359 3.9583321h-54.8229141c-2.1861305 0-3.9583359-1.7722034-3.9583359-3.9583321v-16.2687492c0-2.1861267 1.7722054-3.9583335 3.9583359-3.9583335h54.8229141c2.1861267 0 3.9583359 1.7722068 3.9583359 3.9583335zm-74.614584 28.1437473h-16.4270811c-2.1861272 0-3.9583335 1.7722054-3.9583335 3.9583359v16.3083305c0 2.1861267 1.7722063 3.9583359 3.9583335 3.9583359h16.4270811c2.1861286 0 3.9583321-1.7722092 3.9583321-3.9583359v-16.3083305c0-2.1861305-1.7722035-3.9583359-3.9583321-3.9583359zm0-32.1020808h-16.4270811c-2.1861272 0-3.9583335 1.7722068-3.9583335 3.9583335v16.2687492c0 2.1861286 1.7722063 3.9583321 3.9583335 3.9583321h16.4270811c2.1861286 0 3.9583321-1.7722034 3.9583321-3.9583321v-16.2687492c0-2.1861267-1.7722035-3.9583335-3.9583321-3.9583335zm70.6562481 64.2437511h-54.8229141c-2.1861305 0-3.9583359 1.7722092-3.9583359 3.9583282v16.2687531c0 2.1861267 1.7722054 3.9583359 3.9583359 3.9583359h54.8229141c2.1861267 0 3.9583359-1.7722092 3.9583359-3.9583359v-16.2687531c0-2.1861191-1.7722092-3.9583282-3.9583359-3.9583282zm0-32.1416703h-54.8229141c-2.1861305 0-3.9583359 1.7722054-3.9583359 3.9583359v16.3083305c0 2.1861267 1.7722054 3.9583359 3.9583359 3.9583359h54.8229141c2.1861267 0 3.9583359-1.7722092 3.9583359-3.9583359v-16.3083305c0-2.1861305-1.7722092-3.9583359-3.9583359-3.9583359zm-70.6562481 32.1416703h-16.4270811c-2.1861272 0-3.9583335 1.7722092-3.9583335 3.9583282v16.2687531c0 2.1861267 1.7722063 3.9583359 3.9583335 3.9583359h16.4270811c2.1861286 0 3.9583321-1.7722092 3.9583321-3.9583359v-16.2687531c0-2.1861191-1.7722035-3.9583282-3.9583321-3.9583282z" fill="url(#SVGID_1_)"/></svg>