<svg id="Layer_1" enable-background="new 0 0 100 100" viewBox="0 0 100 100" xmlns="http://www.w3.org/2000/svg" xmlns:xlink="http://www.w3.org/1999/xlink"><linearGradient id="SVGID_1_" gradientUnits="userSpaceOnUse" x1="-3.344" x2="101.11" y1="-2.764" y2="104.524"><stop offset=".1843576" stop-color="#29abe2"/><stop offset=".8211977" stop-color="#6200d2"/></linearGradient><path d="m94.5192184 43.5448532c-.1347122.3292427-.3333969.6284943-.5845566.8804245l-7.8646545 7.8646507c-1.0502319 1.0507278-2.7533951 1.0511246-3.8041229.0008965-1.0507202-1.0502281-1.0511246-2.7533913-.0008926-3.8041153l3.2760391-3.27425h-27.5872269c-1.4854698 0-2.6896858-1.204216-2.6896858-2.6896858 0-1.4854736 1.204216-2.6896896 2.6896858-2.6896896h27.5872345l-3.2760391-3.2742462c-1.0502319-1.0507278-1.0498276-2.7538872.0008926-3.8041191 1.0507278-1.05023 2.753891-1.0498276 3.8041229.0008965l7.862854 7.8682365c.2507553.2522621.449379.5514259.5845566.8804245l.0125504.0412407c.2557602.6288872.2557602 1.332798 0 1.9616814zm-19.9377594 12.4263573c-1.4854736 0-2.6896896 1.204216-2.6896896 2.6896896v15.8153649c0 1.4854736-1.204216 2.6896896-2.6896896 2.6896896h-19.2743073v-50.5840683c-.0093117-3.1545048-1.8496552-6.0164871-4.7159233-7.3338833l-24.8885765-11.3684158h48.8806c1.4854736 0 2.6896896 1.2042141 2.6896896 2.6896887v15.8153658c0 1.4854736 1.204216 2.6896896 2.6896896 2.6896896 1.485466 0 2.689682-1.204216 2.689682-2.6896896v-15.8153658c-.0069046-4.4535556-3.6155014-8.0621529-8.0690613-8.0690651h-55.8558597c-4.2935276-.030863-7.8463268 3.3320322-8.0511341 7.6207838-.0179315.2151747-.0179315.3765564-.0179315.4482813v63.9069977c-.0029807.1556168.0030065.3112793.0179315.4662094.0171237.3186264.0530486.6359634.1075878.9503555.0358624.1972427.0717249.3944855.1255188.5917358v.0179291c.7604065 3.6195602 3.1968389 6.6617737 6.5628381 8.1945801l26.4127388 12.0677338c1.0527.4807739 2.1958618.7314072 3.3531456.7351837 1.5468979.001297 3.0607948-.4472656 4.357296-1.2910538 2.3143997-1.4848862 3.7133026-4.0461655 3.7117691-6.7959518v-6.8640747h19.2742996c4.4564209 0 8.0690613-3.6126404 8.0690613-8.0690613v-15.8153697c0-1.4854736-1.204216-2.6896896-2.689682-2.6896896-.0000005 0-.0000005-.0035896.0000071-.0035896z" fill="url(#SVGID_1_)"/></svg>