<svg viewBox="0 0 24 24" xmlns="http://www.w3.org/2000/svg"><g id="Layer_2" data-name="Layer 2"><g id="Layer_1-2" data-name="Layer 1"><circle cx="12.024" cy="12.016" fill="#a6adb5" r="11"/><path d="m15 16h-3v-7.4687a.5.5 0 0 0 -.2734-.4458l-2.1375-1.0855h5.4109v3h1v-3.5a.5.5 0 0 0 -.5-.5h-8l-.0111.0023c-.0148 0-.0281.007-.0428.0086a.4877.4877 0 0 0 -.179.0541c-.0091.0048-.02.0034-.0287.0087-.0123.0076-.0175.0217-.029.03a.4859.4859 0 0 0 -.1154.12.4752.4752 0 0 0 -.0359.0532.4894.4894 0 0 0 -.0581.2231v10a.4875.4875 0 0 0 .0662.2346.4634.4634 0 0 0 .0351.0521.4879.4879 0 0 0 .1447.134c.0106.0065.0154.0189.0265.0245l4 2.0425a.5.5 0 0 0 .7275-.4452v-1.5425h3.5a.5.5 0 0 0 .5-.5v-3.5h-1z" fill="#fff"/><path d="m20.2334 11.0845-2.4395-1.772a.5.5 0 0 0 -.7939.4043v1.272h-2.9614a.5.5 0 0 0 0 1h2.9614v1.272a.5.5 0 0 0 .7939.4043l2.4395-1.772a.5.5 0 0 0 0-.8086z" fill="#fff"/><path d="m0 0h24v24h-24z" fill="none"/></g></g></svg>