<?xml version="1.0" encoding="iso-8859-1"?>
<!-- Generator: Adobe Illustrator 19.0.0, SVG Export Plug-In . SVG Version: 6.00 Build 0)  -->
<svg version="1.1" id="Capa_1" xmlns="http://www.w3.org/2000/svg" xmlns:xlink="http://www.w3.org/1999/xlink" x="0px" y="0px"
	 viewBox="0 0 511.999 511.999" style="enable-background:new 0 0 511.999 511.999;" xml:space="preserve">
<g>
	<g>
		<path d="M286.999,120.999H76c-41.353,0-76,33.647-76,75v149.999c0,36.226,26.811,66.519,61,73.491v77.509
			c0,6.064,3.647,11.543,9.258,13.857c5.532,2.309,12.017,1.078,16.348-3.252l85.604-86.604h114.788c41.353,0,75-33.647,75-75
			V195.999C361.999,154.646,328.352,120.999,286.999,120.999z M91,300.998c-16.538,0-30-13.462-30-30s13.462-30,30-30
			s30,13.462,30,30S107.538,300.998,91,300.998z M181,300.998c-16.538,0-30-13.462-30-30s13.462-30,30-30s30,13.462,30,30
			S197.538,300.998,181,300.998z M271.999,300.998c-16.538,0-30-13.462-30-30s13.462-30,30-30s30,13.462,30,30
			S288.537,300.998,271.999,300.998z"/>
	</g>
</g>
<g>
	<g>
		<path d="M436.998,0H196c-41.353,0-75,33.647-75,75v16h165.999c57.891,0,104.999,47.109,104.999,104.999v149.999
			c0,1.932-0.465,3.735-0.569,5.641l34.964,34.964c4.33,4.33,10.816,5.561,16.348,3.252c5.61-2.314,9.258-7.793,9.258-13.857
			v-76.509c34.189-6.973,60-37.266,60-73.491V75C511.998,33.647,478.351,0,436.998,0z"/>
	</g>
</g>
<g>
</g>
<g>
</g>
<g>
</g>
<g>
</g>
<g>
</g>
<g>
</g>
<g>
</g>
<g>
</g>
<g>
</g>
<g>
</g>
<g>
</g>
<g>
</g>
<g>
</g>
<g>
</g>
<g>
</g>
</svg>
