<svg clip-rule="evenodd" fill-rule="evenodd" height="512" stroke-linejoin="round" stroke-miterlimit="2" viewBox="0 0 24 24" width="512" xmlns="http://www.w3.org/2000/svg"><g id="Icon"><path d="m12 1.75c5.954 0 10.75 4.392 10.75 9.75s-4.796 9.75-10.75 9.75c-1.398 0-2.734-.243-3.958-.683l-3.207 1.604c-.249.124-.546.101-.773-.062-.226-.162-.343-.437-.305-.713 0 0 .446-3.185.446-3.185-1.834-1.752-2.953-4.116-2.953-6.711 0-5.358 4.796-9.75 10.75-9.75zm0 1.5c-5.085 0-9.25 3.674-9.25 8.25 0 2.297 1.056 4.371 2.746 5.863.189.166.282.416.247.666 0 0-.303 2.162-.303 2.162l2.225-1.112c.19-.095.412-.105.61-.027 1.141.449 2.401.698 3.725.698 5.085 0 9.25-3.674 9.25-8.25s-4.165-8.25-9.25-8.25z"/><path d="m7.386 14.672c-.115.09-.279.083-.386-.015-.108-.099-.129-.261-.05-.384.91-1.417 2.254-3.507 3-4.668.145-.225.375-.383.637-.438.263-.055.536-.002.759.147.531.354 1.197.798 1.647 1.098.311.207.713.224 1.04.042.708-.393 1.974-1.097 2.885-1.603.121-.067.273-.043.367.059.093.102.105.254.029.37-.794 1.19-2.082 3.122-2.796 4.193-.292.438-.872.575-1.328.314-.645-.369-1.533-.876-2.109-1.205-.351-.201-.79-.17-1.11.079-.631.491-1.71 1.331-2.585 2.011z"/></g></svg>