<svg fill="none" height="512" viewBox="0 0 24 24" width="512" xmlns="http://www.w3.org/2000/svg"><path clip-rule="evenodd" d="m5 4c-1.65685 0-3 1.34315-3 3v.98343c-.00016.01043-.00016.02085 0 .03127v8.9853c0 1.6569 1.34315 3 3 3h14c1.6569 0 3-1.3431 3-3v-8.98742c.0001-.00901.0001-.01801 0-.02703v-.98555c0-1.65685-1.3431-3-3-3zm15 3.46479v-.46479c0-.55228-.4477-1-1-1h-14c-.55228 0-1 .44772-1 1v.46481l7.4453 4.96349c.3359.224.7735.224 1.1094 0zm-16 2.40372v7.13149c0 .5523.44772 1 1 1h14c.5523 0 1-.4477 1-1v-7.13151l-6.3359 4.22391c-1.0077.6718-2.3205.6718-3.3282 0z" fill="rgb(0,0,0)" fill-rule="evenodd"/></svg>