<svg clip-rule="evenodd" fill-rule="evenodd" height="512" image-rendering="optimizeQuality" shape-rendering="geometricPrecision" text-rendering="geometricPrecision" viewBox="0 0 512 512" width="512" xmlns="http://www.w3.org/2000/svg"><g id="Layer_x0020_1"><g fill="#fec107"><path d="m354.618 246.163c-2.8004 0-5.29962-1.99961-5.89962-4.90041-13.6996-71.5998-76.8002-77.8998-77.4002-77.8998-3.30001-.300001-5.70002-3.19962-5.50041-6.49963.300001-3.30001 3.19962-5.70002 6.49963-5.50041.799609.100394 18.6001 1.69961 38.4001 13.3996 18.3001 10.8 41.7001 32.4001 49.8002 74.2998.600002 3.30001-1.5 6.40041-4.80001 7.00042-.300001 0-.700396.100394-1.09961.100394z"/><path d="m433.417 246.362c-2.8004 0-5.29962-1.99961-5.89962-4.90041-11.5996-60.4998-41.5005-105.3-88.8995-133.2-35.2997-20.8005-67.2994-23.8005-67.5994-23.8005-3.30001-.300001-5.70002-3.19962-5.50041-6.49963.300001-3.30001 3.19962-5.70002 6.49963-5.50041 1.39961.100394 34.9997 3.30001 72.6002 25.3997 22.0997 13.0004 40.9005 29.8997 55.9998 50.2005 18.7997 25.3005 31.8001 55.9006 38.5005 91.0999.600002 3.30001-1.5 6.40041-4.80001 7.00042-.101575.101575-.500789.200788-.901184.200788z"/><path d="m505.917 246.662c-2.8004 0-5.29962-1.99961-5.89962-4.90041-21.1005-110.2-82.3999-166.799-130.1-194.899-51.7006-30.4005-98.5999-34.8001-99.0995-34.8001-3.30001-.300001-5.70002-3.19962-5.50041-6.49963.199607-3.30001 3.19962-5.80041 6.49963-5.50041 1.99961.199607 50.2005 4.69962 104.1 36.4997 31.6997 18.7005 58.8002 42.9001 80.4995 72.0002 27.0001 36.3001 45.7005 80.4002 55.3998 130.9.600002 3.30001-1.5 6.40041-4.80001 7.00042-.300001.100394-.699215.199607-1.09961.199607z"/></g><path d="m362.817 511.961c-40.5001 0-81.0995-15.4004-111.899-46.3005l-204.599-204.599c-61.6998-61.6986-61.6006-162.099 0-223.798 10.9996-10.9996 25.6005-16.9997 41.1001-16.9997 15.4997 0 30.1005 6.00002 41.1001 16.9997l41.7001 41.7001c10.9996 10.9996 16.9997 25.6005 16.9997 41.1001 0 15.4997-6.00002 30.1005-16.9997 41.1001l-25.6997 25.6997c-11.8004 11.8004-11.8004 31.0997 0 42.9001l137.699 137.699c5.70002 5.70002 13.3996 8.89963 21.4997 8.89963 8.10002 0 15.7004-3.19962 21.4997-8.89963l25.6997-25.6997c22.6997-22.6997 59.5006-22.6997 82.2003 0l41.7001 41.7001c10.9996 10.9996 16.9997 25.6005 16.9997 41.1001 0 15.4997-6.00002 30.1005-16.9997 41.1001-30.9001 30.8989-71.4002 46.2982-112.001 46.2982z" fill="#90a6b1"/></g></svg>