<svg clip-rule="evenodd" fill-rule="evenodd" image-rendering="optimizeQuality" shape-rendering="geometricPrecision" text-rendering="geometricPrecision" viewBox="0 0 2.54 2.54" xmlns="http://www.w3.org/2000/svg"><g id="&#x56FE;&#x5C42;_x0020_1"><circle cx="1.27" cy="1.27" fill="#178feb" r="1.27"/><g fill="#fff"><path d="m1.143 1.94404v-1.27002c0-.06994.05705-.12699.12699-.12699h.00002c.06994 0 .12699.05705.12699.12699v1.27002c0 .06994-.05705.12699-.12699.12699h-.00002c-.06994 0-.12699-.05705-.12699-.12699z"/><path d="m.63499 1.18203h1.27002c.06994 0 .12699.05705.12699.12699v.00002c0 .06994-.05705.12699-.12699.12699h-1.27002c-.06994 0-.12699-.05705-.12699-.12699v-.00002c0-.06994.05705-.12699.12699-.12699z"/></g></g></svg>