<svg id="Layer_1" enable-background="new 0 0 512 512" height="512" viewBox="0 0 512 512" width="512" xmlns="http://www.w3.org/2000/svg"><g><g><path d="m489.727 1.073c-2.783-.701-5.745-1.073-8.859-1.073-5.046 0-10.456.95-16.077 2.825l-435.428 145.143c-15.04 5.013-25.406 15.258-28.441 28.109-3.035 12.853 1.654 26.655 12.865 37.869 1.096 1.097 2.356 2.017 3.734 2.728l169.326 87.283 23.995-2.786-2.785 23.995 87.286 169.327c.71 1.378 1.63 2.637 2.726 3.732 9.009 9.011 19.399 13.773 30.049 13.774h.003c16.129 0 29.896-11.247 35.927-29.35l145.144-435.424c3.027-9.084 3.572-17.624 1.722-24.964z" fill="#e7f0ef"/></g><path d="m500.334 11.681-289.491 289.49-2.785 23.995 87.286 169.327c.71 1.378 1.63 2.637 2.726 3.732 9.009 9.011 19.399 13.773 30.049 13.774h.003c16.129 0 29.896-11.247 35.927-29.35l145.143-435.424c3.027-9.084 3.572-17.624 1.722-24.964z" fill="#c5e1e6"/><path d="m489.727 1.073-302.881 302.883 13.997 7.215 7.216 13.997 302.865-302.865c-.938-3.741-2.485-7.177-4.667-10.203-3.995-5.542-9.708-9.305-16.53-11.027z" fill="#8db9c4"/><path d="m503.33 8.684-302.487 302.487 7.216 13.997 302.865-302.865c-.938-3.741-2.485-7.177-4.667-10.203-.889-1.233-1.875-2.363-2.927-3.416z" fill="#678c97"/></g></svg>