<?xml version="1.0" standalone="no"?>
<svg xmlns="http://www.w3.org/2000/svg" version="1.1" xmlns:xlink="http://www.w3.org/1999/xlink" width="512" height="512" x="0" y="0" viewBox="0 0 512 512" style="enable-background:new 0 0 512 512" xml:space="preserve" class=""><g><path d="m499.509 83.651-.006-.007-.012-.01a40.863 40.863 0 0 0-28.6-11.583H41.11a40.87 40.87 0 0 0-28.367 11.36l-.014.013-.008.007-.005.005-.009.01A40.719 40.719 0 0 0 0 113.158v285.685a41.136 41.136 0 0 0 41.11 41.11h429.779A41.135 41.135 0 0 0 512 398.843V113.158a40.768 40.768 0 0 0-12.491-29.507zm-170.6 172.073 162.318-150.58a21.813 21.813 0 0 1 1.508 8.014v285.685a21.8 21.8 0 0 1-1.5 7.969zm141.98-164.417a21.924 21.924 0 0 1 6.025.849L256.168 296.938l-116.55-108.117L35.36 92.087a21.942 21.942 0 0 1 5.75-.78zM20.756 406.813a21.837 21.837 0 0 1-1.5-7.97V113.158a21.808 21.808 0 0 1 1.6-8.251l105.662 98.033 56.732 52.627zm20.354 13.88a21.871 21.871 0 0 1-6.07-.862L197.409 268.7l52.21 48.433a9.632 9.632 0 0 0 13.1 0l52.038-48.275 162.2 150.974a21.91 21.91 0 0 1-6.071.861z" fill="#ffffff" opacity="1" data-original="#000000" class=""/></g></svg>