<svg fill="none" height="512" viewBox="0 0 100 100" width="512" xmlns="http://www.w3.org/2000/svg" xmlns:xlink="http://www.w3.org/1999/xlink"><linearGradient id="paint0_linear_18_11" gradientUnits="userSpaceOnUse" x1="50" x2="50" y1="0" y2="100"><stop offset="0" stop-color="#19afff"/><stop offset="1" stop-color="#0062e0"/></linearGradient><clipPath id="clip0_18_11"><path d="m0 0h100v100h-100z"/></clipPath><g clip-path="url(#clip0_18_11)"><rect fill="url(#paint0_linear_18_11)" height="100" rx="10" width="100"/><path d="m69.6875 72.5c-5.0833 0-10.1354-1.25-15.1563-3.75-5.0208-2.5-9.5312-5.75-13.5312-9.75s-7.25-8.5104-9.75-13.5312c-2.5-5.0209-3.75-10.073-3.75-15.1563 0-.7917.2708-1.4583.8125-2s1.2083-.8125 2-.8125h8.75c.5833 0 1.0938.1979 1.5313.5937.4374.3959.7187.9271.8437 1.5938l1.6875 7.875c.0833.5833.0729 1.1146-.0312 1.5937-.1042.4792-.323.8855-.6563 1.2188l-6.25 6.3125c2.3333 3.875 4.9479 7.25 7.8437 10.125 2.8959 2.875 6.1771 5.3125 9.8438 7.3125l5.9375-6.125c.4167-.4583.8958-.7812 1.4375-.9688.5417-.1874 1.0833-.2187 1.625-.0937l7.4375 1.625c.625.125 1.1458.4375 1.5625.9375s.625 1.0833.625 1.75v8.4375c0 .7917-.2708 1.4583-.8125 2s-1.2083.8125-2 .8125zm-35.375-29.25 5.0625-5.125-1.4375-6.875h-6.6875c0 1.625.25 3.4062.75 5.3438.5 1.9374 1.2708 4.1562 2.3125 6.6562zm34.4375 25.5v-6.6875l-6.4375-1.3125-4.9375 5.1875c1.7083.7917 3.5625 1.4375 5.5625 1.9375s3.9375.7917 5.8125.875z" fill="#fff"/></g></svg>