<svg id="Layer_1" enable-background="new 0 0 100 100" viewBox="0 0 100 100" xmlns="http://www.w3.org/2000/svg" xmlns:xlink="http://www.w3.org/1999/xlink"><linearGradient id="lg1"><stop offset=".1843576" stop-color="#29abe2"/><stop offset=".8211977" stop-color="#6200d2"/></linearGradient><linearGradient id="SVGID_1_" gradientUnits="userSpaceOnUse" x1="-6.538" x2="84.843" xlink:href="#lg1" y1="13.073" y2="104.786"/><linearGradient id="SVGID_00000116234010969431132550000012275158460107082425_" gradientUnits="userSpaceOnUse" x1="20.295" x2="111.677" xlink:href="#lg1" y1="-13.664" y2="78.049"/><g><path d="m90.2708511 47.3957138c-2.2773438 0-4.1303635 1.8523064-4.1303635 4.1305923v27.6075974c0 5.5600128-4.5225143 10.082634-10.0817032 10.082634h-55.2163295c-5.5590811 0-10.0815954-4.5226212-10.0815954-10.082634v-55.21562c0-5.5583687 4.5225163-10.0807667 10.0815992-10.0807667h27.6077976c2.2773514 0 4.1304703-1.8523092 4.1304703-4.1303711s-1.853138-4.1305914-4.1304741-4.1305914h-27.6077976c-10.1138802 0-18.3424568 8.2288818-18.3424568 18.3417282v55.2156067c0 10.1147079 8.2285576 18.3433914 18.3424568 18.3433914h55.2163315c10.1139832 0 18.3425598-8.2286835 18.3425598-18.3433914v-27.6076021c0-2.2782822-1.8530197-4.1305885-4.1304703-4.1305885z" fill="url(#SVGID_1_)"/><path d="m96.0957108 9.4492426-5.5678864-5.5511112c-1.8174286-1.8338778-4.9895706-1.8338778-6.8068848 0l-36.546112 36.54601c-1.5200882 1.50354-2.6600685 3.3870964-3.3208656 5.4192581l-3.8000298 11.9947395c-.1982841.5781021-.0330162 1.2226562.3965874 1.6687088.3138924.3137894.7434959.4791641 1.1729774.4791641.1652718 0 .3304596-.0331192.4957314-.0827942l11.994648-3.7998276c2.0322838-.6606941 3.9156342-1.8009644 5.4191551-3.321064l36.5626793-36.5460129c.9086608-.9084595 1.4042892-2.1147555 1.4042892-3.4034413s-.4956284-2.4947777-1.4042892-3.4036465z" fill="url(#SVGID_00000116234010969431132550000012275158460107082425_)"/></g></svg>